<svg xmlns="http://www.w3.org/2000/svg" xmlns:xlink="http://www.w3.org/1999/xlink" width="711" zoomAndPan="magnify" viewBox="0 0 533.25 242.999999" height="324" preserveAspectRatio="xMidYMid meet" version="1.0"><defs><g/><clipPath id="b9a11bdfab"><path d="M 325 138 L 532.5 138 L 532.5 142 L 325 142 Z M 325 138 " clip-rule="nonzero"/></clipPath></defs><g fill="#ffffff" fill-opacity="1"><g transform="translate(250.987657, 169.842825)"><g><path d="M 28.5625 1 C 40.046875 1 52.625 -6.59375 52.625 -20.265625 C 52.625 -32.25 40.546875 -36.75 30.359375 -40.640625 C 22.375 -43.84375 12.28125 -47.4375 12.28125 -56.328125 C 12.28125 -64.203125 18.578125 -68.90625 26.5625 -68.90625 C 36.25 -68.90625 44.734375 -63.3125 48.828125 -53.03125 L 49.9375 -53.421875 L 49.53125 -66.40625 C 44.34375 -69 37.75 -70.59375 30.359375 -70.59375 C 14.671875 -70.59375 4.6875 -62.90625 4.6875 -50.53125 C 4.6875 -38.9375 13.28125 -35.546875 23.5625 -31.25 C 31.5625 -28.0625 44.4375 -23.46875 44.4375 -13.6875 C 44.4375 -5.5 38.046875 -1.09375 31.15625 -1.09375 C 17.875 -1.09375 8.984375 -9.890625 4.796875 -21.265625 L 3.5 -21.078125 L 3.890625 -6.09375 C 8.984375 -2.296875 18.28125 1 28.5625 1 Z M 28.5625 1 "/></g></g></g><g fill="#ffffff" fill-opacity="1"><g transform="translate(231.064214, 132.513043)"><g><path d="M 4.984375 0 L 24.734375 0 L 24.734375 -1.484375 C 21.234375 -2.65625 20.484375 -5.84375 20.484375 -13.484375 L 20.484375 -29.1875 L 25.6875 -29.1875 C 47.4375 -29.1875 57 -40.4375 57 -53.703125 C 57 -62.296875 51.484375 -74.296875 27.28125 -74.296875 L 4.984375 -74.296875 L 4.984375 -72.8125 C 8.484375 -71.640625 9.234375 -68.453125 9.234375 -60.8125 L 9.234375 -13.484375 C 9.234375 -5.84375 8.484375 -2.65625 4.984375 -1.484375 Z M 20.484375 -30.890625 L 20.484375 -72.390625 C 21.234375 -72.5 22.71875 -72.59375 23.78125 -72.59375 C 40.546875 -72.59375 45 -60.078125 45 -50.953125 C 45 -38.953125 39.0625 -30.890625 25.15625 -30.890625 Z M 20.484375 -30.890625 "/></g></g></g><path stroke-linecap="butt" transform="matrix(0.748947, -0.000000000000000279, 0.000000000000000279, 0.748947, 0, 140.259434)" fill="none" stroke-linejoin="miter" d="M -0.000000000000000744 2.000648 L 273.926406 2.000648 " stroke="#ffffff" stroke-width="4" stroke-opacity="1" stroke-miterlimit="4"/><g clip-path="url(#b9a11bdfab)"><path stroke-linecap="butt" transform="matrix(0.748947, -0.000000000000000279, 0.000000000000000279, 0.748947, 327.113339, 138.761541)" fill="none" stroke-linejoin="miter" d="M -0.0000764835 1.997835 L 273.92633 1.997835 " stroke="#ffffff" stroke-width="4" stroke-opacity="1" stroke-miterlimit="4"/></g></svg>